<mxfile host="app.diagrams.net" modified="2023-03-28T15:49:51.855Z" agent="Mozilla/5.0 (Macintosh; Intel Mac OS X 10_15_7) AppleWebKit/605.1.15 (KHTML, like Gecko) Version/16.2 Safari/605.1.15" etag="mtYnloz0hh02brYhbBcM" version="21.1.1" type="device">
  <diagram name="Page-1" id="uAGnWD9kL0sEGSB0CznB">
    <mxGraphModel dx="954" dy="624" grid="1" gridSize="10" guides="1" tooltips="1" connect="1" arrows="1" fold="1" page="1" pageScale="1" pageWidth="827" pageHeight="1169" math="0" shadow="0">
      <root>
        <mxCell id="0" />
        <mxCell id="1" parent="0" />
        <mxCell id="muWU9oP4v_XezRyv1MDm-3" value="«interface»&lt;br&gt;&lt;b&gt;WIN&lt;/b&gt;" style="html=1;whiteSpace=wrap;" vertex="1" parent="1">
          <mxGeometry x="325" y="80" width="110" height="50" as="geometry" />
        </mxCell>
        <mxCell id="muWU9oP4v_XezRyv1MDm-4" value="&lt;p style=&quot;margin:0px;margin-top:4px;text-align:center;&quot;&gt;&lt;b&gt;Teamwork&lt;/b&gt;&lt;/p&gt;&lt;hr size=&quot;1&quot;&gt;&lt;div style=&quot;height:2px;&quot;&gt;&lt;/div&gt;" style="verticalAlign=top;align=left;overflow=fill;fontSize=12;fontFamily=Helvetica;html=1;whiteSpace=wrap;" vertex="1" parent="1">
          <mxGeometry x="50" y="500" width="120" height="60" as="geometry" />
        </mxCell>
        <mxCell id="muWU9oP4v_XezRyv1MDm-6" value="&lt;p style=&quot;margin:0px;margin-top:4px;text-align:center;&quot;&gt;&lt;b&gt;SpaceWars&lt;/b&gt;&lt;/p&gt;&lt;hr size=&quot;1&quot;&gt;&lt;div style=&quot;height:2px;&quot;&gt;&lt;/div&gt;" style="verticalAlign=top;align=left;overflow=fill;fontSize=12;fontFamily=Helvetica;html=1;whiteSpace=wrap;" vertex="1" parent="1">
          <mxGeometry x="325" y="200" width="110" height="60" as="geometry" />
        </mxCell>
        <mxCell id="muWU9oP4v_XezRyv1MDm-8" value="" style="endArrow=block;dashed=1;endFill=0;endSize=12;html=1;rounded=0;entryX=0.5;entryY=1;entryDx=0;entryDy=0;exitX=0.5;exitY=0;exitDx=0;exitDy=0;" edge="1" parent="1" source="muWU9oP4v_XezRyv1MDm-6" target="muWU9oP4v_XezRyv1MDm-3">
          <mxGeometry width="160" relative="1" as="geometry">
            <mxPoint x="400" y="190" as="sourcePoint" />
            <mxPoint x="360" y="150" as="targetPoint" />
          </mxGeometry>
        </mxCell>
        <mxCell id="muWU9oP4v_XezRyv1MDm-9" value="&lt;p style=&quot;margin:0px;margin-top:4px;text-align:center;&quot;&gt;&lt;b&gt;GameUI&lt;/b&gt;&lt;/p&gt;&lt;hr size=&quot;1&quot;&gt;&lt;div style=&quot;height:2px;&quot;&gt;&lt;/div&gt;" style="verticalAlign=top;align=left;overflow=fill;fontSize=12;fontFamily=Helvetica;html=1;whiteSpace=wrap;" vertex="1" parent="1">
          <mxGeometry x="180" y="140" width="110" height="60" as="geometry" />
        </mxCell>
        <mxCell id="muWU9oP4v_XezRyv1MDm-10" value="Use" style="endArrow=open;endSize=12;dashed=1;html=1;rounded=0;entryX=0;entryY=0.25;entryDx=0;entryDy=0;exitX=0.5;exitY=1;exitDx=0;exitDy=0;" edge="1" parent="1" source="muWU9oP4v_XezRyv1MDm-9" target="muWU9oP4v_XezRyv1MDm-6">
          <mxGeometry width="160" relative="1" as="geometry">
            <mxPoint x="150" y="240" as="sourcePoint" />
            <mxPoint x="260" y="240" as="targetPoint" />
            <Array as="points">
              <mxPoint x="235" y="215" />
            </Array>
          </mxGeometry>
        </mxCell>
        <mxCell id="muWU9oP4v_XezRyv1MDm-11" value="Use" style="endArrow=open;endSize=12;dashed=1;html=1;rounded=0;exitX=0.5;exitY=0;exitDx=0;exitDy=0;entryX=0;entryY=0.75;entryDx=0;entryDy=0;" edge="1" parent="1" source="muWU9oP4v_XezRyv1MDm-9" target="muWU9oP4v_XezRyv1MDm-3">
          <mxGeometry x="0.1965" width="160" relative="1" as="geometry">
            <mxPoint x="160" y="104.5" as="sourcePoint" />
            <mxPoint x="300" y="120" as="targetPoint" />
            <Array as="points">
              <mxPoint x="235" y="118" />
            </Array>
            <mxPoint as="offset" />
          </mxGeometry>
        </mxCell>
        <mxCell id="muWU9oP4v_XezRyv1MDm-14" value="&lt;p style=&quot;margin:0px;margin-top:4px;text-align:center;&quot;&gt;&lt;b&gt;Admiral&lt;/b&gt;&lt;/p&gt;&lt;hr size=&quot;1&quot;&gt;&lt;div style=&quot;height:2px;&quot;&gt;&lt;/div&gt;" style="verticalAlign=top;align=left;overflow=fill;fontSize=12;fontFamily=Helvetica;html=1;whiteSpace=wrap;" vertex="1" parent="1">
          <mxGeometry x="480" y="420" width="110" height="60" as="geometry" />
        </mxCell>
        <mxCell id="muWU9oP4v_XezRyv1MDm-16" value="&lt;p style=&quot;margin:0px;margin-top:4px;text-align:center;&quot;&gt;&lt;b&gt;GameGUI&lt;/b&gt;&lt;/p&gt;&lt;hr size=&quot;1&quot;&gt;&lt;div style=&quot;height:2px;&quot;&gt;&lt;/div&gt;" style="verticalAlign=top;align=left;overflow=fill;fontSize=12;fontFamily=Helvetica;html=1;whiteSpace=wrap;" vertex="1" parent="1">
          <mxGeometry x="60" y="140" width="110" height="60" as="geometry" />
        </mxCell>
        <mxCell id="muWU9oP4v_XezRyv1MDm-17" value="&lt;p style=&quot;margin:0px;margin-top:4px;text-align:center;&quot;&gt;&lt;b&gt;Force&lt;/b&gt;&lt;/p&gt;&lt;hr size=&quot;1&quot;&gt;&lt;div style=&quot;height:2px;&quot;&gt;&lt;/div&gt;" style="verticalAlign=top;align=left;overflow=fill;fontSize=12;fontFamily=Helvetica;html=1;whiteSpace=wrap;" vertex="1" parent="1">
          <mxGeometry x="542.5" y="540" width="110" height="60" as="geometry" />
        </mxCell>
        <mxCell id="muWU9oP4v_XezRyv1MDm-18" value="&lt;p style=&quot;margin:0px;margin-top:4px;text-align:center;&quot;&gt;&lt;b&gt;Battle&lt;/b&gt;&lt;/p&gt;&lt;hr size=&quot;1&quot;&gt;&lt;div style=&quot;height:2px;&quot;&gt;&lt;/div&gt;" style="verticalAlign=top;align=left;overflow=fill;fontSize=12;fontFamily=Helvetica;html=1;whiteSpace=wrap;" vertex="1" parent="1">
          <mxGeometry x="480" y="280" width="115" height="60" as="geometry" />
        </mxCell>
        <mxCell id="muWU9oP4v_XezRyv1MDm-19" value="&lt;p style=&quot;margin:0px;margin-top:4px;text-align:center;&quot;&gt;&lt;b&gt;Wings&lt;/b&gt;&lt;/p&gt;&lt;hr size=&quot;1&quot;&gt;&lt;div style=&quot;height:2px;&quot;&gt;&lt;/div&gt;" style="verticalAlign=top;align=left;overflow=fill;fontSize=12;fontFamily=Helvetica;html=1;whiteSpace=wrap;" vertex="1" parent="1">
          <mxGeometry x="422.5" y="615" width="110" height="60" as="geometry" />
        </mxCell>
        <mxCell id="muWU9oP4v_XezRyv1MDm-20" value="&lt;p style=&quot;margin:0px;margin-top:4px;text-align:center;&quot;&gt;&lt;b&gt;Starship&lt;/b&gt;&lt;/p&gt;&lt;hr size=&quot;1&quot;&gt;&lt;div style=&quot;height:2px;&quot;&gt;&lt;/div&gt;" style="verticalAlign=top;align=left;overflow=fill;fontSize=12;fontFamily=Helvetica;html=1;whiteSpace=wrap;" vertex="1" parent="1">
          <mxGeometry x="662.5" y="620" width="110" height="60" as="geometry" />
        </mxCell>
        <mxCell id="muWU9oP4v_XezRyv1MDm-22" value="Extends" style="endArrow=block;endSize=16;endFill=0;html=1;rounded=0;exitX=0.5;exitY=0;exitDx=0;exitDy=0;entryX=1;entryY=0.5;entryDx=0;entryDy=0;" edge="1" parent="1" source="muWU9oP4v_XezRyv1MDm-20" target="muWU9oP4v_XezRyv1MDm-17">
          <mxGeometry x="0.0058" width="160" relative="1" as="geometry">
            <mxPoint x="572.5" y="590" as="sourcePoint" />
            <mxPoint x="672.5" y="570" as="targetPoint" />
            <Array as="points">
              <mxPoint x="717.5" y="570" />
            </Array>
            <mxPoint as="offset" />
          </mxGeometry>
        </mxCell>
        <mxCell id="muWU9oP4v_XezRyv1MDm-23" value="&lt;p style=&quot;margin:0px;margin-top:4px;text-align:center;&quot;&gt;&lt;b&gt;Warbird&lt;/b&gt;&lt;/p&gt;&lt;hr size=&quot;1&quot;&gt;&lt;div style=&quot;height:2px;&quot;&gt;&lt;/div&gt;" style="verticalAlign=top;align=left;overflow=fill;fontSize=12;fontFamily=Helvetica;html=1;whiteSpace=wrap;" vertex="1" parent="1">
          <mxGeometry x="542.5" y="650" width="110" height="60" as="geometry" />
        </mxCell>
        <mxCell id="muWU9oP4v_XezRyv1MDm-24" value="Extends" style="endArrow=block;endSize=16;endFill=0;html=1;rounded=0;entryX=0;entryY=0.75;entryDx=0;entryDy=0;exitX=0.5;exitY=0;exitDx=0;exitDy=0;" edge="1" parent="1" source="muWU9oP4v_XezRyv1MDm-19" target="muWU9oP4v_XezRyv1MDm-17">
          <mxGeometry width="160" relative="1" as="geometry">
            <mxPoint x="372.5" y="569.41" as="sourcePoint" />
            <mxPoint x="532.5" y="569.41" as="targetPoint" />
            <Array as="points">
              <mxPoint x="478" y="585" />
            </Array>
            <mxPoint as="offset" />
          </mxGeometry>
        </mxCell>
        <mxCell id="muWU9oP4v_XezRyv1MDm-26" value="Extends" style="endArrow=block;endSize=16;endFill=0;html=1;rounded=0;entryX=0.5;entryY=1;entryDx=0;entryDy=0;exitX=0.5;exitY=0;exitDx=0;exitDy=0;" edge="1" parent="1" source="muWU9oP4v_XezRyv1MDm-23" target="muWU9oP4v_XezRyv1MDm-17">
          <mxGeometry x="-0.6" width="160" relative="1" as="geometry">
            <mxPoint x="382.5" y="600" as="sourcePoint" />
            <mxPoint x="542.5" y="600" as="targetPoint" />
            <mxPoint as="offset" />
          </mxGeometry>
        </mxCell>
        <mxCell id="muWU9oP4v_XezRyv1MDm-27" value="Use" style="endArrow=open;endSize=12;dashed=1;html=1;rounded=0;exitX=0.5;exitY=1;exitDx=0;exitDy=0;entryX=0;entryY=0.75;entryDx=0;entryDy=0;" edge="1" parent="1" source="muWU9oP4v_XezRyv1MDm-16" target="muWU9oP4v_XezRyv1MDm-6">
          <mxGeometry x="0.1667" width="160" relative="1" as="geometry">
            <mxPoint x="120" y="215" as="sourcePoint" />
            <mxPoint x="210" y="250" as="targetPoint" />
            <Array as="points">
              <mxPoint x="115" y="245" />
            </Array>
            <mxPoint x="-1" as="offset" />
          </mxGeometry>
        </mxCell>
        <mxCell id="muWU9oP4v_XezRyv1MDm-28" value="Use" style="endArrow=open;endSize=12;dashed=1;html=1;rounded=0;exitX=0.5;exitY=0;exitDx=0;exitDy=0;entryX=0;entryY=0.25;entryDx=0;entryDy=0;" edge="1" parent="1" source="muWU9oP4v_XezRyv1MDm-16" target="muWU9oP4v_XezRyv1MDm-3">
          <mxGeometry x="0.1829" width="160" relative="1" as="geometry">
            <mxPoint x="120" y="116" as="sourcePoint" />
            <mxPoint x="210" y="94" as="targetPoint" />
            <Array as="points">
              <mxPoint x="115" y="93" />
            </Array>
            <mxPoint as="offset" />
          </mxGeometry>
        </mxCell>
        <mxCell id="muWU9oP4v_XezRyv1MDm-30" value="Use" style="endArrow=open;endSize=12;dashed=1;html=1;rounded=0;entryX=0;entryY=0.5;entryDx=0;entryDy=0;exitX=0.75;exitY=1;exitDx=0;exitDy=0;" edge="1" parent="1" source="muWU9oP4v_XezRyv1MDm-6" target="muWU9oP4v_XezRyv1MDm-18">
          <mxGeometry x="0.2" width="160" relative="1" as="geometry">
            <mxPoint x="400" y="270" as="sourcePoint" />
            <mxPoint x="480" y="310" as="targetPoint" />
            <Array as="points">
              <mxPoint x="408" y="310" />
            </Array>
            <mxPoint x="-1" as="offset" />
          </mxGeometry>
        </mxCell>
        <mxCell id="muWU9oP4v_XezRyv1MDm-32" value="&lt;p style=&quot;margin:0px;margin-top:4px;text-align:center;&quot;&gt;&lt;b&gt;BattleType&lt;/b&gt;&lt;/p&gt;&lt;hr size=&quot;1&quot;&gt;&lt;div style=&quot;height:2px;&quot;&gt;&lt;/div&gt;" style="verticalAlign=top;align=left;overflow=fill;fontSize=12;fontFamily=Helvetica;html=1;whiteSpace=wrap;" vertex="1" parent="1">
          <mxGeometry x="120" y="400" width="110" height="60" as="geometry" />
        </mxCell>
        <mxCell id="muWU9oP4v_XezRyv1MDm-33" value="&lt;p style=&quot;margin:0px;margin-top:4px;text-align:center;&quot;&gt;&lt;b&gt;ForceState&lt;/b&gt;&lt;/p&gt;&lt;hr size=&quot;1&quot;&gt;&lt;div style=&quot;height:2px;&quot;&gt;&lt;/div&gt;" style="verticalAlign=top;align=left;overflow=fill;fontSize=12;fontFamily=Helvetica;html=1;whiteSpace=wrap;" vertex="1" parent="1">
          <mxGeometry x="120" y="320" width="110" height="60" as="geometry" />
        </mxCell>
        <mxCell id="muWU9oP4v_XezRyv1MDm-34" value="Use" style="endArrow=open;endSize=12;dashed=1;html=1;rounded=0;exitX=0.25;exitY=1;exitDx=0;exitDy=0;entryX=0;entryY=0.25;entryDx=0;entryDy=0;" edge="1" parent="1" source="muWU9oP4v_XezRyv1MDm-6" target="muWU9oP4v_XezRyv1MDm-17">
          <mxGeometry x="-0.3632" y="1" width="160" relative="1" as="geometry">
            <mxPoint x="310" y="320" as="sourcePoint" />
            <mxPoint x="530" y="560" as="targetPoint" />
            <Array as="points">
              <mxPoint x="353" y="555" />
            </Array>
            <mxPoint as="offset" />
          </mxGeometry>
        </mxCell>
        <mxCell id="muWU9oP4v_XezRyv1MDm-35" value="Use" style="endArrow=open;endSize=12;dashed=1;html=1;rounded=0;exitX=0.5;exitY=1;exitDx=0;exitDy=0;entryX=0;entryY=0.5;entryDx=0;entryDy=0;" edge="1" parent="1" source="muWU9oP4v_XezRyv1MDm-6" target="muWU9oP4v_XezRyv1MDm-14">
          <mxGeometry width="160" relative="1" as="geometry">
            <mxPoint x="372.5" y="370" as="sourcePoint" />
            <mxPoint x="380" y="460" as="targetPoint" />
            <Array as="points">
              <mxPoint x="380" y="450" />
            </Array>
            <mxPoint as="offset" />
          </mxGeometry>
        </mxCell>
      </root>
    </mxGraphModel>
  </diagram>
</mxfile>
